<svg width="22" height="17" viewBox="0 0 22 17" fill="none" xmlns="http://www.w3.org/2000/svg">
<path d="M20.1667 0H1.83333C0.821181 0 0 0.784267 0 1.75092V14.591C0 15.5577 0.821181 16.3419 1.83333 16.3419H20.1667C21.1788 16.3419 22 15.5577 22 14.591V1.75092C22 0.784267 21.1788 0 20.1667 0ZM6.72222 3.50184C8.07049 3.50184 9.16667 4.54875 9.16667 5.83641C9.16667 7.12406 8.07049 8.17097 6.72222 8.17097C5.37396 8.17097 4.27778 7.12406 4.27778 5.83641C4.27778 4.54875 5.37396 3.50184 6.72222 3.50184ZM11 12.1397C11 12.5264 10.6181 12.8401 10.1444 12.8401H3.3C2.82639 12.8401 2.44444 12.5264 2.44444 12.1397V11.4394C2.44444 10.2794 3.5941 9.33825 5.01111 9.33825H5.20208C5.67188 9.52428 6.18368 9.63007 6.72222 9.63007C7.26076 9.63007 7.77639 9.52428 8.24236 9.33825H8.43333C9.85035 9.33825 11 10.2794 11 11.4394V12.1397ZM19.5556 10.2137C19.5556 10.3742 19.4181 10.5055 19.25 10.5055H13.75C13.5819 10.5055 13.4444 10.3742 13.4444 10.2137V9.63007C13.4444 9.46957 13.5819 9.33825 13.75 9.33825H19.25C19.4181 9.33825 19.5556 9.46957 19.5556 9.63007V10.2137ZM19.5556 7.87915C19.5556 8.03965 19.4181 8.17097 19.25 8.17097H13.75C13.5819 8.17097 13.4444 8.03965 13.4444 7.87915V7.29551C13.4444 7.13501 13.5819 7.00369 13.75 7.00369H19.25C19.4181 7.00369 19.5556 7.13501 19.5556 7.29551V7.87915ZM19.5556 5.54459C19.5556 5.70509 19.4181 5.83641 19.25 5.83641H13.75C13.5819 5.83641 13.4444 5.70509 13.4444 5.54459V4.96095C13.4444 4.80044 13.5819 4.66912 13.75 4.66912H19.25C19.4181 4.66912 19.5556 4.80044 19.5556 4.96095V5.54459Z" fill="white"/>
</svg>
